<svg width="20" height="20" viewBox="0 0 20 20" fill="none" xmlns="http://www.w3.org/2000/svg">
<path d="M10.321 4.44946C9.38065 4.44946 8.60084 5.22928 8.60084 6.16965V7.95864L7.3623 7.98157V9.77056L8.60084 9.74763V15.5504H10.7339V9.74763H12.454L12.6375 7.95864H10.7339C10.7339 7.56873 10.7339 7.13295 10.7339 6.72011C10.7339 6.44488 10.9403 6.23845 11.2155 6.23845H12.6375V4.44946H10.321Z" fill="#EFBF78"/>
<path d="M10 0.917431C15 0.917431 19.0826 5 19.0826 10C19.0826 15 15 19.0826 10 19.0826C5 19.0826 0.917431 15 0.917431 10C0.917431 5 5 0.917431 10 0.917431ZM10 0C4.47248 0 0 4.47248 0 10C0 15.5275 4.47248 20 10 20C15.5275 20 20 15.5275 20 10C20 4.47248 15.5275 0 10 0Z" fill="#EFBF78"/>
</svg>
