<svg width="20" height="20" viewBox="0 0 20 20" fill="none" xmlns="http://www.w3.org/2000/svg">
<path d="M10 20C4.49541 20 0 15.5046 0 10C0 4.49541 4.49541 0 10 0C15.5046 0 20 4.49541 20 10C20 15.5046 15.5046 20 10 20ZM10 0.688073C4.86239 0.688073 0.688073 4.86239 0.688073 10C0.688073 15.1376 4.86239 19.3119 10 19.3119C15.1376 19.3119 19.3119 15.1376 19.3119 10C19.3119 4.86239 15.1376 0.688073 10 0.688073Z" fill="#EFBF78"/>
<path d="M15.2292 6.78892C15.2292 6.78892 14.7246 7.13296 14.1512 7.01828C14.1512 7.01828 14.954 6.51369 14.9999 5.71094C14.7017 6.55956 13.6696 6.46782 13.6696 6.46782C13.0962 5.75681 12.2476 5.75681 11.9265 5.77975C11.4678 5.80268 9.77051 5.98617 9.954 8.60085C9.954 8.60085 6.85766 8.55497 5.29803 6.12378C4.77051 7.84397 6.05491 8.96782 6.05491 8.96782C5.43565 9.10543 4.99987 8.71552 4.99987 8.71552C5.32097 10.5045 6.92647 10.8715 6.92647 10.8715C6.35308 11.1926 5.64207 10.9632 5.64207 10.9632C6.19253 12.3623 7.93565 12.4541 7.93565 12.4541C6.94941 13.6467 4.77051 13.6467 4.77051 13.6467C6.65124 14.7476 14.1971 15.1146 14.1971 8.37149C14.1971 8.16507 14.1742 7.98158 14.1512 7.79809V7.82103C14.1742 7.84396 14.9769 7.5458 15.2292 6.78892Z" fill="#EFBF78"/>
<path d="M10 20C4.49541 20 0 15.5046 0 10C0 4.49541 4.49541 0 10 0C15.5046 0 20 4.49541 20 10C20 15.5046 15.5046 20 10 20ZM10 0.688073C4.86239 0.688073 0.688073 4.86239 0.688073 10C0.688073 15.1376 4.86239 19.3119 10 19.3119C15.1376 19.3119 19.3119 15.1376 19.3119 10C19.3119 4.86239 15.1376 0.688073 10 0.688073Z" fill="#EFBF78"/>
<path d="M15.2292 6.78892C15.2292 6.78892 14.7246 7.13296 14.1512 7.01828C14.1512 7.01828 14.954 6.51369 14.9999 5.71094C14.7017 6.55956 13.6696 6.46782 13.6696 6.46782C13.0962 5.75681 12.2476 5.75681 11.9265 5.77975C11.4678 5.80268 9.77051 5.98617 9.954 8.60085C9.954 8.60085 6.85766 8.55497 5.29803 6.12378C4.77051 7.84397 6.05491 8.96782 6.05491 8.96782C5.43565 9.10543 4.99987 8.71552 4.99987 8.71552C5.32097 10.5045 6.92647 10.8715 6.92647 10.8715C6.35308 11.1926 5.64207 10.9632 5.64207 10.9632C6.19253 12.3623 7.93565 12.4541 7.93565 12.4541C6.94941 13.6467 4.77051 13.6467 4.77051 13.6467C6.65124 14.7476 14.1971 15.1146 14.1971 8.37149C14.1971 8.16507 14.1742 7.98158 14.1512 7.79809V7.82103C14.1742 7.84396 14.9769 7.5458 15.2292 6.78892Z" fill="#EFBF78"/>
<path d="M10 0.917431C15 0.917431 19.0826 5 19.0826 10C19.0826 15 15 19.0826 10 19.0826C5 19.0826 0.917431 15 0.917431 10C0.917431 5 5 0.917431 10 0.917431ZM10 0C4.47248 0 0 4.47248 0 10C0 15.5275 4.47248 20 10 20C15.5275 20 20 15.5275 20 10C20 4.47248 15.5275 0 10 0Z" fill="#EFBF78"/>
</svg>
