<svg width="20" height="20" viewBox="0 0 20 20" fill="none" xmlns="http://www.w3.org/2000/svg">
<path d="M10 0.921659C15 0.921659 19.0783 5 19.0783 10C19.0783 15 15 19.0783 10 19.0783C5 19.0783 0.921659 15 0.921659 10C0.921659 5 5 0.921659 10 0.921659ZM10 0C4.47005 0 0 4.47005 0 10C0 15.53 4.47005 20 10 20C15.53 20 20 15.53 20 10C20 4.47005 15.53 0 10 0Z" fill="#EFBF78"/>
<path d="M6.68213 10.8065L7.8342 13.9171L12.9494 6.82031L6.68213 10.8065Z" fill="#D19D5A"/>
<path d="M7.97214 11.4976L7.85693 13.963L10.5528 11.6588L7.97214 11.4976Z" fill="#D19D5A"/>
<path d="M14.1935 5.62204L4.12437 9.44693C3.84787 9.56214 3.84787 9.95384 4.12437 10.046L6.72805 10.9216L12.6497 7.0967L7.97229 11.4976L11.6128 14.2626C11.9815 14.5391 12.5345 14.3548 12.6497 13.8939L14.6313 6.01375C14.7004 5.76029 14.4469 5.52988 14.1935 5.62204Z" fill="#EFBF78"/>
</svg>
