<svg width="20" height="20" viewBox="0 0 20 20" fill="none" xmlns="http://www.w3.org/2000/svg">
<path d="M12.5002 4.42651H7.5231C5.82585 4.42651 4.44971 5.80266 4.44971 7.49991V12.477C4.44971 14.1742 5.82585 15.5504 7.5231 15.5504H12.5002C14.1974 15.5504 15.5736 14.1742 15.5736 12.477V7.52284C15.5736 5.8256 14.1974 4.42651 12.5002 4.42651ZM14.7937 7.52284V12.4999C14.7937 13.7614 13.7616 14.7935 12.5002 14.7935H7.5231C6.26163 14.7935 5.22952 13.7614 5.22952 12.4999V7.52284C5.22952 6.26138 6.26163 5.22927 7.5231 5.22927H12.5002C13.7616 5.20633 14.7937 6.23844 14.7937 7.52284Z" fill="#EFBF78"/>
<path d="M9.99991 6.51367C8.07331 6.51367 6.51367 8.07331 6.51367 9.99991C6.51367 11.9265 8.07331 13.4862 9.99991 13.4862C11.9265 13.4862 13.5091 11.9265 13.5091 9.99991C13.5091 8.07331 11.9265 6.51367 9.99991 6.51367ZM12.7293 9.99991C12.7293 11.4907 11.5137 12.7063 10.0228 12.7063C8.53202 12.7063 7.31642 11.4907 7.31642 9.99991C7.31642 8.50908 8.53202 7.29349 10.0228 7.29349C11.5137 7.29349 12.7293 8.50908 12.7293 9.99991Z" fill="#EFBF78"/>
<path d="M13.3488 7.40821C13.6908 7.40821 13.968 7.13095 13.968 6.78894C13.968 6.44693 13.6908 6.16968 13.3488 6.16968C13.0067 6.16968 12.7295 6.44693 12.7295 6.78894C12.7295 7.13095 13.0067 7.40821 13.3488 7.40821Z" fill="#EFBF78"/>
<path d="M10 0.917431C15 0.917431 19.0826 5 19.0826 10C19.0826 15 15 19.0826 10 19.0826C5 19.0826 0.917431 15 0.917431 10C0.917431 5 5 0.917431 10 0.917431ZM10 0C4.47248 0 0 4.47248 0 10C0 15.5275 4.47248 20 10 20C15.5275 20 20 15.5275 20 10C20 4.47248 15.5275 0 10 0Z" fill="#EFBF78"/>
</svg>
