<svg width="20" height="20" viewBox="0 0 20 20" fill="none" xmlns="http://www.w3.org/2000/svg">
<path d="M4.19714 7.04132C4.7476 7.04132 5.89439 7.04132 6.28429 7.04132C6.37604 7.04132 6.44484 7.08719 6.46778 7.156C6.94943 8.21104 7.54576 9.15141 8.23383 9.9771C8.30264 10.0688 8.44026 10.0688 8.48613 9.95416C8.71549 9.42664 9.10539 8.1193 8.32558 7.17893C8.25677 7.08719 8.27971 6.97251 8.39438 6.92664C9.19714 6.5826 9.97695 6.53673 10.7338 6.88077C10.8944 6.94957 11.0091 7.11012 11.0091 7.29361L11.1925 9.9771C11.1925 10.0918 11.3072 10.1835 11.4219 10.1606C12.2935 9.9771 12.821 8.66976 13.3256 7.29361C13.3944 7.13306 13.5549 7.01838 13.7384 7.01838H15.665C15.8256 7.01838 15.9403 7.156 15.9173 7.31655C15.7338 8.27985 14.7476 9.54132 14.243 10.1606C14.0595 10.367 14.0595 10.6881 14.243 10.8945L15.9632 12.9587C16.0779 13.0964 15.9861 13.3257 15.7797 13.3257H13.6008C13.4173 13.3257 13.2568 13.2569 13.1192 13.1193L11.5825 11.8578C11.5136 11.7661 11.3531 11.7432 11.2843 11.8349C11.1008 12.0643 11.1008 12.3395 11.0091 13.0046C10.9861 13.211 10.8026 13.3487 10.5962 13.3487H9.10539C8.89897 13.3487 8.69255 13.3028 8.48613 13.211C7.6375 12.7982 5.27512 11.3532 3.96778 7.33948C3.94485 7.17893 4.05952 7.04132 4.19714 7.04132Z" fill="#EFBF78"/>
<path d="M10 0.917431C15 0.917431 19.0826 5 19.0826 10C19.0826 15 15 19.0826 10 19.0826C5 19.0826 0.917431 15 0.917431 10C0.917431 5 5 0.917431 10 0.917431ZM10 0C4.47248 0 0 4.47248 0 10C0 15.5275 4.47248 20 10 20C15.5275 20 20 15.5275 20 10C20 4.47248 15.5275 0 10 0Z" fill="#EFBF78"/>
</svg>
