<svg width="20" height="21" viewBox="0 0 20 21" fill="none" xmlns="http://www.w3.org/2000/svg">
<path d="M14.1504 15.5216V18.1085C14.1504 18.331 13.9833 18.4979 13.7604 18.4979H1.92201C1.69916 18.4979 1.53203 18.331 1.53203 18.1085V1.91933C1.53203 1.6968 1.69916 1.5299 1.92201 1.5299H13.7604C13.9833 1.5299 14.1504 1.6968 14.1504 1.91933V4.53407H15.6825V1.91933C15.6825 0.862309 14.8189 0 13.7604 0H1.92201C0.86351 0 0 0.862309 0 1.91933V18.1085C0 19.1655 0.86351 20.0278 1.92201 20.0278H13.7604C14.8189 20.0278 15.6825 19.1655 15.6825 18.1085V15.5216H14.1504Z" fill="#F5B656"/>
<path d="M19.9998 10.014L15.7102 5.73022L14.8188 6.62035L17.6043 9.37417H7.82715V10.6537H17.6043L14.8188 13.4076L15.7102 14.2977L19.9998 10.014Z" fill="#F5B656"/>
</svg>
